<?xml version="1.0" encoding="UTF-8" standalone="no"?>
<!-- Created with Inkscape (http://www.inkscape.org/) -->

<svg
   xmlns:dc="http://purl.org/dc/elements/1.1/"
   xmlns:cc="http://creativecommons.org/ns#"
   xmlns:rdf="http://www.w3.org/1999/02/22-rdf-syntax-ns#"
   xmlns:svg="http://www.w3.org/2000/svg"
   xmlns="http://www.w3.org/2000/svg"
   xmlns:sodipodi="http://sodipodi.sourceforge.net/DTD/sodipodi-0.dtd"
   xmlns:inkscape="http://www.inkscape.org/namespaces/inkscape"
   version="1.1"
   id="svg815"
   width="200.08421"
   height="200.08421"
   viewBox="0 0 200.08421 200.08421"
   sodipodi:docname="good logo.svg"
   inkscape:version="0.92.3 (2405546, 2018-03-11)">
  <metadata
     id="metadata821">
    <rdf:RDF>
      <cc:Work
         rdf:about="">
        <dc:format>image/svg+xml</dc:format>
        <dc:type
           rdf:resource="http://purl.org/dc/dcmitype/StillImage" />
        <dc:title></dc:title>
      </cc:Work>
    </rdf:RDF>
  </metadata>
  <defs
     id="defs819" />
  <sodipodi:namedview
     pagecolor="#ffffff"
     bordercolor="#666666"
     borderopacity="1"
     objecttolerance="10"
     gridtolerance="10"
     guidetolerance="10"
     inkscape:pageopacity="0"
     inkscape:pageshadow="2"
     inkscape:window-width="1920"
     inkscape:window-height="1051"
     id="namedview817"
     showgrid="false"
     inkscape:zoom="2.1440972"
     inkscape:cx="148.85754"
     inkscape:cy="30.831299"
     inkscape:window-x="-9"
     inkscape:window-y="1341"
     inkscape:window-maximized="1"
     inkscape:current-layer="svg815" />
  <path
     style="fill:#000000;stroke-width:1.0105263"
     d="m 2.9536475,98.89554 -1.9e-4,-95.7473617 97.7686225,0.530225 c 53.77272,0.291624 97.89876,0.632677 98.05783,0.757895 0.15907,0.125218 0.15907,4.661353 0,10.0803007 l -0.28923,9.852631 -87.78835,0.258237 -87.788342,0.258236 0.63045,3.15229 c 0.34675,1.733759 0.63046,35.154397 0.63046,74.268077 v 71.11579 H 109.6308 c 56.97444,0 86.10736,0.34864 87.41053,1.04608 1.69043,0.90469 1.95462,2.17493 1.95462,9.39789 0,5.14849 -0.46511,8.81692 -1.21263,9.56445 -0.92628,0.92628 -24.07298,1.21263 -98.021052,1.21263 H 2.9538475 Z M 120.42753,156.48923 43.374898,156.23029 v -31.74262 c 0,-17.45844 0.27602,-32.46191 0.61338,-33.34105 0.55073,-1.43519 7.41391,-1.59844 67.199992,-1.59844 H 177.7749 V 76.9166 64.28502 h -67.2 -67.200002 V 54.192111 44.099204 l 77.810632,-0.264988 77.81064,-0.264986 -1.1e-4,56.2772 c -6e-5,30.95246 -0.34116,56.41772 -0.75801,56.58947 -0.41684,0.17175 -35.43158,0.19575 -77.81052,0.0534 z M 177.7749,123.65344 V 110.76923 H 120.68016 63.585428 v 12.88421 12.88421 h 57.094732 57.09474 z"
     id="path825"
     inkscape:connector-curvature="0" />
</svg>
