<svg xmlns="http://www.w3.org/2000/svg" width="1920.001" height="54.055" viewBox="0 0 1920.001 54.055">
  <path id="reversewave" d="M-92-1253.945H-2012v-19.68l.022-.005c1.087-.23,11.156-2.337,29.481-5.366,17.787-2.94,47.223-7.376,86.45-11.816,44.083-4.99,91.288-8.965,140.306-11.816,61.27-3.564,125.556-5.371,191.074-5.371,34.5,0,69.892.5,105.2,1.5,37.845,1.067,76.6,2.725,115.186,4.93,70.137,4.007,149.8,10.728,234.143,17.843l.019,0h.011c81.364,6.865,165.5,13.963,251.178,19.539,46.4,3.02,88.448,5.283,128.556,6.921,44.758,1.828,87.387,2.853,126.7,3.047,3.737.019,7.525.028,11.26.028,61.459,0,126.01-2.491,191.862-7.4,52.681-3.93,106.306-9.41,159.385-16.287,47.22-6.118,85.264-12.234,108.865-16.287,25.493-4.379,40.153-7.374,40.3-7.4v47.625Z" transform="translate(-92 -1253.945) rotate(180)" fill="#489ec0"/>
</svg>
