<svg xmlns="http://www.w3.org/2000/svg" width="1920" height="203.054" viewBox="0 0 1920 203.054">
  <path id="wave" d="M-92-1104.945H-2012v-73.926c.425-.341,10.553-8.41,29.5-20.176,11.321-7.029,23.534-13.987,36.3-20.681,15.958-8.367,32.831-16.343,50.15-23.707a790.9,790.9,0,0,1,140.307-44.387,868.274,868.274,0,0,1,89.384-14.628c16.237-1.8,32.834-3.178,49.33-4.1,17.25-.962,34.866-1.45,52.359-1.45,16.928,0,34.2.457,51.333,1.357,17.779.935,35.9,2.373,53.867,4.275,18.608,1.969,37.571,4.491,56.364,7.5,19.433,3.107,39.224,6.815,58.822,11.021,70.141,15.053,149.81,40.3,234.156,67.033,40.116,12.714,81.6,25.86,123.654,38.413,47.464,14.166,89.183,25.611,127.539,34.989,22.173,5.421,43.817,10.29,64.33,14.471,22.042,4.494,43.651,8.372,64.227,11.529,21.851,3.352,43.3,6.006,63.763,7.89,21.561,1.985,42.737,3.182,62.942,3.557,3.738.069,7.525.1,11.258.1,16.411,0,33.241-.673,50.024-2,16.045-1.268,32.477-3.169,48.839-5.649,15.6-2.366,31.543-5.319,47.374-8.778,15.046-3.287,30.4-7.117,45.626-11.385,52.68-14.763,106.305-35.347,159.386-61.183C-220.315-1205-199.5-1216-179.288-1227.534c16.161-9.225,31.97-18.816,46.99-28.505,25.61-16.523,40.155-27.7,40.3-27.81v178.9Z" transform="translate(2012 1308)" fill="#489ec0"/>
</svg>
