<svg xmlns="http://www.w3.org/2000/svg" width="69.777" height="74.502" viewBox="0 0 69.777 74.502">
  <path id="whitelogoicon" d="M2.954,40.4V3.148l34.8.206c19.139.113,34.845.246,34.9.295a38.281,38.281,0,0,1,0,3.922l-.1,3.833L41.3,11.5l-31.246.1.224,1.226c.123.675.224,13.677.224,28.894V69.394H40.923q30.418,0,31.112.407c.6.352.7.846.7,3.656,0,2-.166,3.43-.432,3.721-.33.36-8.568.472-34.888.472H2.954ZM44.766,62.806l-27.425-.1V50.356c0-6.792.1-12.629.218-12.971.2-.558,2.639-.622,23.918-.622h23.7V26.934H17.341V19.08l27.695-.1,27.695-.1V40.769c0,12.042-.121,21.95-.27,22.016s-12.611.076-27.695.021ZM65.177,50.031V45.019H24.534V55.044H65.177Z" transform="translate(-2.953 -3.148)" fill="#fff"/>
</svg>
