<?xml version="1.0" encoding="UTF-8" standalone="no"?>
<svg
   xmlns:dc="http://purl.org/dc/elements/1.1/"
   xmlns:cc="http://creativecommons.org/ns#"
   xmlns:rdf="http://www.w3.org/1999/02/22-rdf-syntax-ns#"
   xmlns:svg="http://www.w3.org/2000/svg"
   xmlns="http://www.w3.org/2000/svg"
   xmlns:sodipodi="http://sodipodi.sourceforge.net/DTD/sodipodi-0.dtd"
   xmlns:inkscape="http://www.inkscape.org/namespaces/inkscape"
   viewBox="0 0 1768.2622 1694.2765"
   version="1.1"
   id="svg6049"
   sodipodi:docname="mountain.svg"
   width="1768.2622"
   height="1694.2765"
   inkscape:version="0.92.3 (2405546, 2018-03-11)">
  <metadata
     id="metadata6055">
    <rdf:RDF>
      <cc:Work
         rdf:about="">
        <dc:format>image/svg+xml</dc:format>
        <dc:type
           rdf:resource="http://purl.org/dc/dcmitype/StillImage" />
        <dc:title />
      </cc:Work>
    </rdf:RDF>
  </metadata>
  <defs
     id="defs6053" />
  <sodipodi:namedview
     pagecolor="#ffffff"
     bordercolor="#666666"
     borderopacity="1"
     objecttolerance="10"
     gridtolerance="10"
     guidetolerance="10"
     inkscape:pageopacity="0"
     inkscape:pageshadow="2"
     inkscape:window-width="1920"
     inkscape:window-height="1051"
     id="namedview6051"
     showgrid="false"
     fit-margin-top="0"
     fit-margin-left="0"
     fit-margin-right="0"
     fit-margin-bottom="0"
     inkscape:zoom="0.51382978"
     inkscape:cx="523.8396"
     inkscape:cy="998.22965"
     inkscape:window-x="-9"
     inkscape:window-y="-9"
     inkscape:window-maximized="1"
     inkscape:current-layer="svg6049" />
  <rect
     style="opacity:1;fill:none;fill-opacity:1;stroke:none;stroke-width:10.40289021;stroke-linecap:butt;stroke-linejoin:round;stroke-miterlimit:0;stroke-dasharray:none;stroke-opacity:1"
     id="rect6676"
     width="1780.7379"
     height="1965.1422"
     x="649.927"
     y="-266.9733" />
  <rect
     style="opacity:1;fill:none;fill-opacity:1;stroke:none;stroke-width:2.73055506;stroke-linecap:butt;stroke-linejoin:round;stroke-miterlimit:0;stroke-dasharray:none;stroke-opacity:1"
     id="rect6848"
     width="1773.869"
     height="1667.8937"
     x="-2.7523305"
     y="-110.09201" />
  <polygon
     transform="translate(61.62477,-173.39287)"
     style="fill:#000000;fill-opacity:0.16417913"
     points="957,450 539,900 1396,900 "
     id="polygon6025-82-2" />
  <polygon
     transform="translate(61.62477,-173.39287)"
     style="fill:#000000;fill-opacity:0.15920398"
     points="957,450 872.9,900 1396,900 "
     id="polygon6027-0-0" />
  <polygon
     transform="translate(61.62477,-173.39287)"
     style="fill:#000000;fill-opacity:0.08955222"
     points="-60,900 398,662 816,900 "
     id="polygon6029-4-3" />
  <polygon
     transform="translate(61.62477,-173.39287)"
     style="fill:#000000;fill-opacity:0.19402986"
     points="337,900 398,662 816,900 "
     id="polygon6031-8-1" />
  <polygon
     transform="translate(61.62477,-173.39287)"
     style="fill:#000000;fill-opacity:0.16915421"
     points="1203,546 1552,900 876,900 "
     id="polygon6033-4-8" />
  <polygon
     transform="translate(61.62477,-173.39287)"
     style="fill:#000000;fill-opacity:0.10447759"
     points="1203,546 1552,900 1162,900 "
     id="polygon6035-3-3" />
  <polygon
     transform="translate(61.62477,-173.39287)"
     points="641,695 886,900 367,900 "
     id="polygon6037-53-4"
     style="fill:#000000;fill-opacity:0.15920398" />
  <polygon
     transform="translate(61.62477,-173.39287)"
     style="fill:#000000;fill-opacity:0.06451613"
     points="1710,900 1401,632 1096,900 "
     id="polygon6041-29-1" />
  <polygon
     transform="translate(61.62477,-173.39287)"
     style="fill:#000000;fill-opacity:0.15920398"
     points="1710,900 1401,632 1365,900 "
     id="polygon6043-2-2" />
  <polygon
     transform="matrix(0.99957312,0,0,-1,62.35467,1626.6071)"
     style="fill:#000000;fill-opacity:0.16417913"
     points="1396,900 957,450 539,900 "
     id="polygon6025-8-3-9" />
  <polygon
     transform="matrix(0.99957312,0,0,-1,62.35467,1626.6071)"
     style="fill:#000000;fill-opacity:0.15920398"
     points="1396,900 957,450 872.9,900 "
     id="polygon6027-9-8-7" />
  <polygon
     transform="matrix(0.99957312,0,0,-1,62.35467,1626.6071)"
     style="fill:#000000;fill-opacity:0.08955222"
     points="816,900 -60,900 398,662 "
     id="polygon6029-9-1-7" />
  <polygon
     transform="matrix(0.99957312,0,0,-1,62.35467,1626.6071)"
     style="fill:#000000;fill-opacity:0.19402986"
     points="816,900 337,900 398,662 "
     id="polygon6031-7-0-1" />
  <polygon
     transform="matrix(0.99957312,0,0,-1,62.35467,1626.6071)"
     style="fill:#000000;fill-opacity:0.16915421"
     points="876,900 1203,546 1552,900 "
     id="polygon6033-3-9-1" />
  <polygon
     transform="matrix(0.99957312,0,0,-1,62.35467,1626.6071)"
     style="fill:#000000;fill-opacity:0.10447759"
     points="1162,900 1203,546 1552,900 "
     id="polygon6035-0-1-8" />
  <polygon
     transform="matrix(0.99957312,0,0,-1,62.35467,1626.6071)"
     points="367,900 641,695 886,900 "
     id="polygon6037-5-1-7"
     style="fill:#000000;fill-opacity:0.15920398" />
  <polygon
     transform="matrix(0.99957312,0,0,-1,62.35467,1626.6071)"
     style="fill:#000000;fill-opacity:0.06451613"
     points="1096,900 1710,900 1401,632 "
     id="polygon6041-2-0-1" />
  <polygon
     transform="matrix(0.99957312,0,0,-1,62.35467,1626.6071)"
     style="fill:#000000;fill-opacity:0.15920398"
     points="1365,900 1710,900 1401,632 "
     id="polygon6043-6-8-1" />
  <rect
     style="opacity:1;fill:none;fill-opacity:0.15132668;stroke:none;stroke-width:1.99936998;stroke-linecap:butt;stroke-linejoin:round;stroke-miterlimit:0;stroke-dasharray:none;stroke-opacity:1"
     id="rect6934"
     width="1777.9856"
     height="1450.4619"
     x="0"
     y="0" />
  <polygon
     transform="rotate(-180,533.22964,447.2477)"
     style="fill:#000000;fill-opacity:0.08955222"
     points="398,662 816,900 -60,900 "
     id="polygon6029-4-3-4" />
  <polygon
     transform="rotate(-180,533.22964,447.2477)"
     style="fill:#000000;fill-opacity:0.19402986"
     points="398,662 816,900 337,900 "
     id="polygon6031-8-1-0" />
  <polygon
     transform="translate(60,550.46191)"
     style="fill:#000000;fill-opacity:0.08955222"
     points="816,900 -60,900 398,662 "
     id="polygon6029-4-3-4-8" />
  <polygon
     transform="translate(60,550.46191)"
     style="fill:#000000;fill-opacity:0.19402986"
     points="816,900 337,900 398,662 "
     id="polygon6031-8-1-0-1" />
  <polygon
     transform="matrix(-1,0,0,-0.65307146,1627.5441,587.11315)"
     style="fill:#000000;fill-opacity:0.08955222"
     points="-60,900 398,662 816,900 "
     id="polygon6029-4-3-4-6" />
  <polygon
     transform="matrix(-1,0,0,-0.65307146,1627.5441,587.11315)"
     style="fill:#000000;fill-opacity:0.19402986"
     points="337,900 398,662 816,900 "
     id="polygon6031-8-1-0-4" />
  <polygon
     transform="matrix(1,0,0,0.65307146,761.45212,863.3487)"
     style="fill:#000000;fill-opacity:0.08955222"
     points="398,662 816,900 -60,900 "
     id="polygon6029-4-3-4-6-0" />
  <polygon
     transform="matrix(1,0,0,0.65307146,761.45212,863.3487)"
     style="fill:#000000;fill-opacity:0.19402986"
     points="398,662 816,900 337,900 "
     id="polygon6031-8-1-0-4-6" />
  <polygon
     transform="matrix(0.99743886,0,0,-0.77176344,61.846331,2145.049)"
     style="fill:#000000;fill-opacity:0.08955222"
     points="-60,900 398,662 816,900 "
     id="polygon6029-4-3-4-8-9" />
  <polygon
     transform="matrix(0.99743886,0,0,-0.77176344,61.846331,2145.049)"
     style="fill:#000000;fill-opacity:0.19402986"
     points="337,900 398,662 816,900 "
     id="polygon6031-8-1-0-1-3" />
  <polygon
     transform="matrix(0.99743886,0,0,-0.50401668,761.50195,1903.5745)"
     style="fill:#000000;fill-opacity:0.08955222"
     points="816,900 -60,900 398,662 "
     id="polygon6029-4-3-4-6-0-8" />
  <polygon
     transform="matrix(0.99743886,0,0,-0.50401668,761.50195,1903.5745)"
     style="fill:#000000;fill-opacity:0.19402986"
     points="816,900 337,900 398,662 "
     id="polygon6031-8-1-0-4-6-6" />
  <rect
     style="opacity:1;fill:none;fill-opacity:1;stroke:none;stroke-width:1.99936998;stroke-linecap:butt;stroke-linejoin:round;stroke-miterlimit:0;stroke-dasharray:none;stroke-opacity:1"
     id="rect973"
     width="1768.2622"
     height="1694.2765"
     x="0"
     y="0" />
</svg>
